{
	"asset":{
		"generator":"Khronos glTF Blender I/O v3.6.27",
		"version":"2.0"
	},
	"scene":0,
	"scenes":[
		{
			"name":"Scene",
			"nodes":[
				0
			]
		}
	],
	"nodes":[
		{
			"mesh":0,
			"name":"Cube"
		}
	],
	"meshes":[
		{
			"name":"Cube",
			"primitives":[
				{
					"attributes":{
						"POSITION":0,
						"NORMAL":1,
						"TEXCOORD_0":2
					},
					"indices":3
				}
			]
		}
	],
	"accessors":[
		{
			"bufferView":0,
			"componentType":5126,
			"count":55552,
			"max":[
				0.5592244863510132,
				1.0044128894805908,
				0.4025779366493225
			],
			"min":[
				-0.559224545955658,
				-0.8029436469078064,
				-0.46208852529525757
			],
			"type":"VEC3"
		},
		{
			"bufferView":1,
			"componentType":5126,
			"count":55552,
			"type":"VEC3"
		},
		{
			"bufferView":2,
			"componentType":5126,
			"count":55552,
			"type":"VEC2"
		},
		{
			"bufferView":3,
			"componentType":5123,
			"count":83328,
			"type":"SCALAR"
		}
	],
	"bufferViews":[
		{
			"buffer":0,
			"byteLength":666624,
			"byteOffset":0,
			"target":34962
		},
		{
			"buffer":0,
			"byteLength":666624,
			"byteOffset":666624,
			"target":34962
		},
		{
			"buffer":0,
			"byteLength":444416,
			"byteOffset":1333248,
			"target":34962
		},
		{
			"buffer":0,
			"byteLength":166656,
			"byteOffset":1777664,
			"target":34963
		}
	],
	"buffers":[
		{
			"byteLength":1944320,
			"uri":"data:application/octet-stream;base64,"
		}
	]
}
